<?xml version="1.0" standalone="no"?>
<!DOCTYPE svg PUBLIC "-//W3C//DTD SVG 20010904//EN"
 "http://www.w3.org/TR/2001/REC-SVG-20010904/DTD/svg10.dtd">
<svg version="1.0" xmlns="http://www.w3.org/2000/svg"
 width="100.000000pt" height="100.000000pt" viewBox="0 0 100.000000 100.000000"
 preserveAspectRatio="xMidYMid meet">

<g transform="translate(0.000000,100.000000) scale(0.100000,-0.100000)"
fill="#000000" stroke="none">
<path d="M364 931 c-37 -22 -59 -70 -50 -111 l6 -30 -71 0 c-125 0 -149 -28
-149 -172 0 -89 0 -90 23 -83 60 19 85 17 111 -9 17 -16 26 -36 26 -56 0 -20
-9 -40 -26 -56 -26 -26 -51 -28 -112 -9 -22 7 -22 6 -22 -89 0 -155 21 -176
172 -176 89 0 90 0 83 22 -19 61 -17 86 9 112 33 34 79 34 112 0 26 -26 28
-51 9 -111 -7 -23 -6 -23 88 -23 151 0 177 23 177 154 l0 75 33 -6 c62 -10
127 45 127 107 0 62 -65 117 -127 107 l-33 -6 0 70 c0 121 -30 149 -155 149
l-74 0 6 33 c7 43 -18 92 -57 112 -39 20 -68 19 -106 -4z m103 -26 c29 -20 38
-68 20 -104 -8 -17 -12 -32 -9 -35 3 -3 50 -6 104 -6 132 0 138 -6 138 -133 0
-52 3 -97 6 -100 4 -3 16 0 28 8 45 32 109 9 121 -45 15 -68 -50 -119 -113
-87 -17 8 -33 12 -36 9 -3 -3 -6 -50 -6 -104 0 -129 -8 -138 -118 -138 l-77 0
0 50 c0 41 -5 54 -28 77 -23 23 -36 28 -77 28 -41 0 -54 -5 -77 -28 -23 -23
-28 -36 -28 -77 l0 -50 -72 0 c-101 0 -113 13 -113 118 l0 77 50 0 c41 0 54 5
77 28 23 23 28 36 28 77 0 41 -5 54 -28 77 -23 23 -36 28 -77 28 l-50 0 0 73
c0 103 11 112 133 112 52 0 97 3 100 6 3 4 0 16 -8 28 -51 71 40 161 112 111z"/>
</g>
</svg>
